<svg xmlns="http://www.w3.org/2000/svg" viewBox="0 0 566.93 566.93"><defs><style>.cls-1,.cls-3{fill:#fbc923;}.cls-1,.cls-2{stroke:#fbc923;stroke-miterlimit:10;stroke-width:5px;}.cls-2{fill:none;}.cls-4{font-size:91px;fill:#eb2329;font-family:MensaExpandedW01-BoldItalic;font-weight:700;font-style:italic;}</style></defs><g id="Layer_5" data-name="Layer 5"><line class="cls-1" x1="22.22" y1="284.24" x2="88.56" y2="217.29"/><line class="cls-2" x1="35.74" y1="236.51" x2="75.15" y2="282.87"/><line class="cls-2" x1="22.22" y1="284.24" x2="89.02" y2="349.85"/><line class="cls-2" x1="34.74" y1="330.97" x2="75.15" y2="282.87"/><line class="cls-2" x1="63.66" y1="384.08" x2="34.74" y2="330.97"/><line class="cls-2" x1="89.02" y1="349.85" x2="64" y2="383.15"/><line class="cls-2" x1="106.18" y1="422.7" x2="63.15" y2="383.15"/><line class="cls-2" x1="89.57" y1="348.92" x2="106.18" y2="422.7"/><line class="cls-2" x1="183.46" y1="410.34" x2="106.18" y2="422.7"/><line class="cls-2" x1="153.33" y1="449.56" x2="105.94" y2="421.61"/><line class="cls-2" x1="183.46" y1="409.59" x2="154.04" y2="449.56"/><line class="cls-2" x1="182.98" y1="408.49" x2="120.32" y2="384.57"/><line class="cls-2" x1="240.98" y1="158.93" x2="308.06" y2="191.89"/><line class="cls-2" x1="265.02" y1="185.76" x2="258.56" y2="119.79"/><line class="cls-2" x1="308.06" y1="194.96" x2="258.56" y2="119.79"/><line class="cls-2" x1="308.94" y1="149.65" x2="258.56" y2="119.79"/><line class="cls-2" x1="153.33" y1="449.56" x2="205.79" y2="451.98"/><line class="cls-2" x1="238.91" y1="411.81" x2="205.79" y2="451.98"/><line class="cls-2" x1="255.02" y1="450.77" x2="183.46" y2="410.34"/><line class="cls-2" x1="260.9" y1="383.47" x2="255.02" y2="450.77"/><line class="cls-2" x1="183.46" y1="411.17" x2="237.53" y2="411.17"/><line class="cls-2" x1="306.69" y1="377.21" x2="238.91" y2="411.17"/><line class="cls-2" x1="306.69" y1="378.95" x2="252.72" y2="450.77"/><line class="cls-2" x1="308.64" y1="422.4" x2="252.72" y2="450.77"/><line class="cls-2" x1="35.74" y1="236.51" x2="63.72" y2="183.3"/><line class="cls-2" x1="88.56" y1="217.29" x2="63.72" y2="183.3"/><line class="cls-2" x1="65.7" y1="182.53" x2="107.27" y2="147.93"/><line class="cls-2" x1="89.02" y1="218.66" x2="107.27" y2="147.93"/><line class="cls-2" x1="125.91" y1="188.66" x2="184.34" y2="162.21"/><line class="cls-2" x1="156.39" y1="120.74" x2="182.98" y2="161.08"/><line class="cls-2" x1="107.27" y1="150.53" x2="181.56" y2="158.93"/><line class="cls-2" x1="108.26" y1="148.63" x2="157.11" y2="120.74"/><line class="cls-2" x1="184.34" y1="162.21" x2="256.17" y2="119.85"/><line class="cls-2" x1="240.98" y1="158.93" x2="208.3" y2="118.44"/><line class="cls-2" x1="156.39" y1="120.74" x2="206.77" y2="118.83"/><circle class="cls-3" cx="63.72" cy="183.85" r="13.91"/><circle class="cls-3" cx="254.33" cy="448.83" r="13.91"/><circle class="cls-3" cx="308.06" cy="149.65" r="12.56"/><circle class="cls-3" cx="258.56" cy="120.74" r="13.94"/><circle class="cls-3" cx="240.98" cy="158.93" r="10"/><circle class="cls-3" cx="265.67" cy="185.39" r="7.58"/><circle class="cls-3" cx="153.33" cy="449.56" r="7.58"/><circle class="cls-3" cx="260.9" cy="384.08" r="7.58"/><circle class="cls-3" cx="156.39" cy="120.74" r="7.58"/><circle class="cls-3" cx="107.27" cy="148.63" r="16.14"/><circle class="cls-3" cx="208.3" cy="117.83" r="10"/><circle class="cls-3" cx="125.91" cy="187.81" r="10"/><circle class="cls-3" cx="35.74" cy="236.51" r="10"/><circle class="cls-3" cx="34.74" cy="330.97" r="10"/><circle class="cls-3" cx="120.32" cy="384.08" r="10"/><circle class="cls-3" cx="307.18" cy="423.2" r="11.39"/><circle class="cls-3" cx="205.08" cy="451.98" r="10"/><circle class="cls-3" cx="238.91" cy="411.81" r="10"/><circle class="cls-3" cx="88.56" cy="348.92" r="11.33"/><circle class="cls-3" cx="89.02" cy="217.29" r="12.17"/><circle class="cls-3" cx="308.06" cy="193.06" r="15.26"/><circle class="cls-3" cx="185.17" cy="162.21" r="15.26"/><circle class="cls-3" cx="62.72" cy="383.15" r="15.26"/><circle class="cls-3" cx="106.18" cy="421.61" r="15.26"/><circle class="cls-3" cx="183.46" cy="410.34" r="15.26"/><circle class="cls-3" cx="306.69" cy="378.95" r="15.26"/><circle class="cls-3" cx="22.22" cy="284.24" r="16.03"/><circle class="cls-3" cx="74.3" cy="281.83" r="18.45"/><text class="cls-4" transform="translate(138.6 318.85)">ALLITES</text></g></svg>